Coordinates
version=1
nRows=28
nColumns=23
inDegrees=yes

Units are S.I. units (second, meters, Newtons, ...)
Angles are in degrees.

endheader
time	thorax_tilt	thorax_list	thorax_rotation	thorax_tx	thorax_ty	thorax_tz	sternoclavicular_r2	sternoclavicular_r3	unrotscap_r3	unrotscap_r2	acromioclavicular_r2	acromioclavicular_r3	acromioclavicular_r1	unrothum_r1	unrothum_r3	unrothum_r2	elv_angle	shoulder_elv	shoulder1_r2	shoulder_rot	elbow_flexion	pro_sup
      3.57200000	     -7.98690967	     -0.68403864	    -11.51777594	     -0.37536505	      1.58203076	      0.04252561	     -2.69763409	      1.14103382	     -1.14270980	      2.69577822	     -0.54574680	      4.40999134	      1.98255898	     -1.98363893	     -4.41242703	      0.54607155	    -17.00132224	     11.14045111	     17.00109902	     36.01343748	     17.39354543	      3.79218498
      3.57600000	     -7.97996292	     -0.68381403	    -11.51512424	     -0.37519043	      1.58201994	      0.04247756	     -2.69736069	      1.14083285	     -1.14255198	      2.69543092	     -0.54571383	      4.40944213	      1.98232948	     -1.98333922	     -4.41177202	      0.54593602	    -17.00320650	     11.13867279	     17.00324030	     36.01305600	     17.39634001	      3.79168351
      3.58000000	     -7.96542594	     -0.68451297	    -11.51157926	     -0.37502445	      1.58202762	      0.04241325	     -2.69656321	      1.14047337	     -1.14218201	      2.69456504	     -0.54557690	      4.40810264	      1.98173665	     -1.98268125	     -4.41033341	      0.54572685	    -17.00583916	     11.13551855	     17.00557329	     36.01166607	     17.40298877	      3.79067760
      3.58400000	     -7.84249357	     -0.70300941	    -11.50125038	     -0.37555782	      1.58220722	      0.04240589	     -2.69159178	      1.13841613	     -1.14003297	      2.68959854	     -0.54457687	      4.39994466	      1.97797601	     -1.97916241	     -4.40228127	      0.54472162	    -17.02542431	     11.11526906	     17.02525371	     35.99116277	     17.46906439	      3.77978349
      3.58800000	     -7.83639132	     -0.70392449	    -11.49998974	     -0.37533258	      1.58217073	      0.04233779	     -2.69152693	      1.13841510	     -1.13990924	      2.68943753	     -0.54455733	      4.39968644	      1.97776804	     -1.97914007	     -4.40205889	      0.54468203	    -17.02736373	     11.11417250	     17.02718068	     35.98918931	     17.47365267	      3.77877268
      3.59200000	     -7.83553164	     -0.70409636	    -11.49990532	     -0.37531952	      1.58217259	      0.04233249	     -2.69129948	      1.13812625	     -1.14015656	      2.68931487	     -0.54462195	      4.39977311	      1.97831625	     -1.97848474	     -4.40165057	      0.54457714	    -17.02750517	     11.11418036	     17.02733862	     35.98895066	     17.47427609	      3.77866068
      3.59600000	     -8.14542387	     -0.80549047	    -11.18309760	     -0.37531412	      1.58075965	      0.04177083	     -2.75123340	      1.16352475	     -1.16527549	      2.74925891	     -0.55665778	      4.49756311	      2.02179693	     -2.02311458	     -4.49992300	      0.55678756	    -18.56570599	     11.36176318	     18.56561322	     34.87175537	     19.75575652	      3.17897368
      3.60000000	     -8.13468495	     -0.80284507	    -11.18154771	     -0.37510862	      1.58079645	      0.04171034	     -2.75120767	      1.16355497	     -1.16528701	      2.74922762	     -0.55663950	      4.49756446	      2.02190437	     -2.02293685	     -4.49972574	      0.55679354	    -18.56779293	     11.36175317	     18.56776307	     34.87099346	     19.75570051	      3.17885702
      3.60400000	     -8.11234875	     -0.79995888	    -11.17959839	     -0.37492038	      1.58087078	      0.04164257	     -2.75094896	      1.16344126	     -1.16511555	      2.74888258	     -0.55659860	      4.49705100	      2.02163684	     -2.02271886	     -4.49917693	      0.55670373	    -18.57060347	     11.36015267	     18.57030909	     34.86872038	     19.75948582	      3.17834359
      3.60800000	     -7.94262319	     -0.78934695	    -11.18594706	     -0.37554182	      1.58119525	      0.04171367	     -2.74965102	      1.16296792	     -1.16457149	      2.74762781	     -0.55635591	      4.49499372	      2.02067525	     -2.02186691	     -4.49717525	      0.55644522	    -18.59025103	     11.35499505	     18.58988783	     34.84122648	     19.80338142	      3.17166890
      3.61200000	     -7.93537611	     -0.78927955	    -11.18588637	     -0.37529937	      1.58122305	      0.04164275	     -2.74990513	      1.16305630	     -1.16463296	      2.74779622	     -0.55641332	      4.49530365	      2.02079382	     -2.02201252	     -4.49747388	      0.55646340	    -18.59194324	     11.35573059	     18.59182993	     34.83891844	     19.80589655	      3.17106316
      3.61600000	     -7.92049369	     -0.78983843	    -11.18626452	     -0.37509890	      1.58129578	      0.04156936	     -2.74980361	      1.16293121	     -1.16466190	      2.74765739	     -0.55642937	      4.49518335	      2.02088047	     -2.02175614	     -4.49721004	      0.55639987	    -18.59395827	     11.35530614	     18.59387131	     34.83493150	     19.81288933	      3.16997803
      3.62000000	     -7.74999358	     -0.79801326	    -11.21300895	     -0.37562943	      1.58155887	      0.04157402	     -2.74861322	      1.16254023	     -1.16405322	      2.74647096	     -0.55615628	      4.49309383	      2.01972664	     -2.02116191	     -4.49542100	      0.55619406	    -18.61470848	     11.34997018	     18.61444240	     34.78181930	     19.91181874	      3.15540277
      3.62400000	     -7.74474279	     -0.79803433	    -11.21362870	     -0.37536874	      1.58160376	      0.04151199	     -2.74858852	      1.16244362	     -1.16412312	      2.74639827	     -0.55618494	      4.49307703	      2.01987517	     -2.02093884	     -4.49526861	      0.55614466	    -18.61646922	     11.35024862	     18.61611987	     34.77860601	     19.91745790	      3.15446343
      3.62800000	     -8.08715328	     -0.59799128	    -10.92120857	     -0.37488204	      1.58061038	      0.04109853	     -2.89760413	      1.22541318	     -1.22731336	      2.89560873	     -0.58627754	      4.73704197	      2.12948746	     -2.13064811	     -4.73933683	      0.58641124	    -19.99934476	     11.96641933	     19.99924129	     33.47257703	     22.61244369	      2.76121459
      3.63200000	     -8.07553926	     -0.59684794	    -10.91826849	     -0.37466122	      1.58072092	      0.04104939	     -2.89733151	      1.22537603	     -1.22726092	      2.89533679	     -0.58622510	      4.73662829	      2.12947614	     -2.13034037	     -4.73884003	      0.58637871	    -20.00145749	     11.96536559	     20.00152459	     33.47187573	     22.61347537	      2.76151720
      3.63600000	     -8.05168349	     -0.59577034	    -10.91390144	     -0.37442519	      1.58089519	      0.04097099	     -2.89618369	      1.22483646	     -1.22671378	      2.89408462	     -0.58600268	      4.73462242	      2.12853435	     -2.12945919	     -4.73682807	      0.58610235	    -20.00431307	     11.96170659	     20.00339612	     33.46994077	     22.62013386	      2.76165429
      3.64000000	     -7.87838160	     -0.59198147	    -10.90661294	     -0.37516119	      1.58125142	      0.04106978	     -2.89010054	      1.22242572	     -1.22407393	      2.88801478	     -0.58480605	      4.72473691	      2.12398267	     -2.12512246	     -4.72694247	      0.58485203	    -20.01996468	     11.93533399	     20.01978848	     33.44637069	     22.68648053	      2.76008487
      3.64400000	     -7.86875089	     -0.59434319	    -10.90598282	     -0.37489600	      1.58136106	      0.04100491	     -2.89006798	      1.22232647	     -1.22411307	      2.88792165	     -0.58481834	      4.72464697	      2.12405458	     -2.12493697	     -4.72678366	      0.58480951	    -20.02179886	     11.93517947	     20.02182492	     33.44350517	     22.69204970	      2.75974989
      3.64800000	     -7.70838117	     -0.61597933	    -10.93075647	     -0.37531262	      1.58162805	      0.04096055	     -2.88737768	      1.22125237	     -1.22286474	      2.88520775	     -0.58421908	      4.71999664	      2.12173772	     -2.12324653	     -4.72253937	      0.58430961	    -20.04908114	     11.92415108	     20.04851849	     33.39085758	     22.80977768	      2.75185374
      3.65200000	     -7.70292437	     -0.61718473	    -10.93142540	     -0.37504727	      1.58176569	      0.04090033	     -2.88729915	      1.22111936	     -1.22291019	      2.88508529	     -0.58422923	      4.71987854	      2.12183230	     -2.12299631	     -4.72231063	      0.58425669	    -20.05111713	     11.92330471	     20.05103217	     33.38747676	     22.81816778	      2.75128950
      3.65600000	     -8.12402669	     -0.62330785	    -10.76148550	     -0.37451030	      1.58012136	      0.04063415	     -2.98518115	      1.26263609	     -1.26426907	      2.98296995	     -0.60409089	      4.88015046	      2.19390709	     -2.19505489	     -4.88237572	      0.60416282	    -21.32303905	     12.32787283	     21.32283608	     32.40937909	     25.58450294	      2.64714045
      3.66000000	     -8.11312190	     -0.62273628	    -10.75865054	     -0.37424827	      1.58031825	      0.04060314	     -2.98488274	      1.26235321	     -1.26437017	      2.98282910	     -0.60397475	      4.87982698	      2.19388723	     -2.19469005	     -4.88207146	      0.60407092	    -21.32468658	     12.32664883	     21.32439564	     32.40814119	     25.58677123	      2.64746695
      3.66400000	     -6.22590764	      0.25908654	     -8.16544444	     -0.37718730	      1.58266478	      0.03811835	     -3.73213652	      1.57869689	     -1.58120451	      3.73037844	     -0.75512592	      6.10292308	      2.74424089	     -2.74402488	     -6.10451360	      0.75504013	    -33.35198661	     15.41503262	     33.35223827	     28.55163532	     30.05438113	      4.45231220
      3.66800000	     -6.21385895	      0.25714521	     -8.16113423	     -0.37693134	      1.58288419	      0.03805461	     -3.73076875	      1.57802573	     -1.58051102	      3.72876408	     -0.75501764	      6.10066901	      2.74309834	     -2.74280762	     -6.10226454	      0.75499565	    -33.35245961	     15.40903738	     33.35229941	     28.55099270	     30.05254325	      4.45308995
      3.67200000	     -6.06443081	      0.24395499	     -8.14416554	     -0.37751673	      1.58328037	      0.03814517	     -3.71394203	      1.57109500	     -1.57320765	      3.71182392	     -0.75166047	      6.07304811	      2.73046180	     -2.73056639	     -6.07469826	      0.75159467	    -33.35397113	     15.33926041	     33.35379720	     28.53351723	     30.05967601	      4.45910227
      3.67600000	     -6.05467116	      0.23921489	     -8.14223276	     -0.37724665	      1.58354062	      0.03804863	     -3.71288633	      1.57051433	     -1.57279455	      3.71071228	     -0.75144892	      6.07124845	      2.72972888	     -2.72967838	     -6.07288038	      0.75135030	    -33.35406401	     15.33428186	     33.35397309	     28.53150577	     30.06182269	      4.45941768
      3.68000000	     -5.90763208	      0.20267906	     -8.14734248	     -0.37781739	      1.58386978	      0.03805212	     -3.69583799	      1.56339447	     -1.56554483	      3.69366877	     -0.74800298	      6.04333234	      2.71711253	     -2.71724029	     -6.04506148	      0.74789619	    -33.35397145	     15.26460423	     33.35367215	     28.49803362	     30.11994188	      4.46085039
